# xmcd CD database file
#
# Track frame offsets:
#	150
#	12922
#	27842
#	41862
#	54610
#	66695
#	80010
#	105615
#	117432
#	129392
#	144682
#	158957
#	173022
#	184442
#
# Disc length: 2639 seconds
#
# Revision: 0
# Processed by: cddbd v1.5.1PL0 Copyright (c) Steve Scherf et al.
# Submitted via: CDex 1.51
#
DISCID=ce0a4d0e
DTITLE=Patsy Riggir - My Little Corner Of The World
DYEAR=1993
DGENRE=Country
TTITLE0=Near You
TTITLE1=The Wayward Wind
TTITLE2=My Little Corner Of The World
TTITLE3=When The Boy In Your Arms
TTITLE4=Love Me Tender
TTITLE5=You're The Only World I Know
TTITLE6=Mother Medley_Mother Pal and Sweetheart, A Mother As Lovely As You, My Mother's Eyes, You Will Never Grow Old
TTITLE7=Dear Hearts And Gentle People
TTITLE8=My Happiness
TTITLE9=Beautiful Isle Of Somewhere
TTITLE10=When I Grow Too Old To Dream
TTITLE11=Secret Love
TTITLE12=Have You Ever Been Lonely
TTITLE13=I Want To Be A Cowboy's Sweetheart
EXTD=YEAR: 1993
EXTT0=
EXTT1=
EXTT2=
EXTT3=
EXTT4=
EXTT5=
EXTT6=
EXTT7=
EXTT8=
EXTT9=
EXTT10=
EXTT11=
EXTT12=
EXTT13=
PLAYORDER=
